<?xml version="1.0" encoding="UTF-8"?>
<svg width="600" height="600" viewBox="0 0 600 600" xmlns="http://www.w3.org/2000/svg">
  <rect width="100%" height="100%" fill="#ffffff" />
<rect x="300" y="300" width="20" height="20" fill="#00cc00" fill-opacity="0.1" />
<rect x="300" y="320" width="20" height="20" fill="#00cc00" fill-opacity="0.10225000000000001" />
<rect x="280" y="320" width="20" height="20" fill="#00cc00" fill-opacity="0.10450000000000001" />
<rect x="260" y="320" width="20" height="20" fill="#00cc00" fill-opacity="0.10675000000000001" />
<rect x="240" y="320" width="20" height="20" fill="#00cc00" fill-opacity="0.10900000000000001" />
<rect x="240" y="300" width="20" height="20" fill="#00cc00" fill-opacity="0.11125" />
<rect x="240" y="280" width="20" height="20" fill="#00cc00" fill-opacity="0.1135" />
<rect x="240" y="260" width="20" height="20" fill="#00cc00" fill-opacity="0.11575" />
<rect x="220" y="260" width="20" height="20" fill="#00cc00" fill-opacity="0.11800000000000001" />
<rect x="200" y="260" width="20" height="20" fill="#00cc00" fill-opacity="0.12025000000000001" />
<rect x="200" y="240" width="20" height="20" fill="#00cc00" fill-opacity="0.12250000000000001" />
<rect x="200" y="260" width="20" height="20" fill="#00cc00" fill-opacity="0.12475" />
<rect x="220" y="260" width="20" height="20" fill="#00cc00" fill-opacity="0.127" />
<rect x="240" y="260" width="20" height="20" fill="#00cc00" fill-opacity="0.12925" />
<rect x="240" y="240" width="20" height="20" fill="#00cc00" fill-opacity="0.1315" />
<rect x="220" y="240" width="20" height="20" fill="#00cc00" fill-opacity="0.13375" />
<rect x="200" y="240" width="20" height="20" fill="#00cc00" fill-opacity="0.136" />
<rect x="200" y="260" width="20" height="20" fill="#00cc00" fill-opacity="0.13825" />
<rect x="200" y="280" width="20" height="20" fill="#00cc00" fill-opacity="0.1405" />
<rect x="220" y="280" width="20" height="20" fill="#00cc00" fill-opacity="0.14275000000000002" />
<rect x="220" y="260" width="20" height="20" fill="#00cc00" fill-opacity="0.14500000000000002" />
<rect x="200" y="260" width="20" height="20" fill="#00cc00" fill-opacity="0.14725" />
<rect x="200" y="280" width="20" height="20" fill="#00cc00" fill-opacity="0.14950000000000002" />
<rect x="180" y="280" width="20" height="20" fill="#00cc00" fill-opacity="0.15175" />
<rect x="200" y="280" width="20" height="20" fill="#00cc00" fill-opacity="0.154" />
<rect x="220" y="280" width="20" height="20" fill="#00cc00" fill-opacity="0.15625" />
<rect x="220" y="300" width="20" height="20" fill="#00cc00" fill-opacity="0.1585" />
<rect x="220" y="280" width="20" height="20" fill="#00cc00" fill-opacity="0.16075" />
<rect x="220" y="300" width="20" height="20" fill="#00cc00" fill-opacity="0.16300000000000003" />
<rect x="240" y="300" width="20" height="20" fill="#00cc00" fill-opacity="0.16525" />
<rect x="240" y="320" width="20" height="20" fill="#00cc00" fill-opacity="0.1675" />
<rect x="240" y="300" width="20" height="20" fill="#00cc00" fill-opacity="0.16975" />
<rect x="240" y="280" width="20" height="20" fill="#00cc00" fill-opacity="0.17200000000000001" />
<rect x="260" y="280" width="20" height="20" fill="#00cc00" fill-opacity="0.17425000000000002" />
<rect x="280" y="280" width="20" height="20" fill="#00cc00" fill-opacity="0.17650000000000002" />
<rect x="280" y="300" width="20" height="20" fill="#00cc00" fill-opacity="0.17875000000000002" />
<rect x="300" y="300" width="20" height="20" fill="#00cc00" fill-opacity="0.181" />
<rect x="280" y="300" width="20" height="20" fill="#00cc00" fill-opacity="0.18325000000000002" />
<rect x="280" y="280" width="20" height="20" fill="#00cc00" fill-opacity="0.1855" />
<rect x="260" y="280" width="20" height="20" fill="#00cc00" fill-opacity="0.18775000000000003" />
<rect x="240" y="280" width="20" height="20" fill="#00cc00" fill-opacity="0.19" />
<rect x="240" y="260" width="20" height="20" fill="#00cc00" fill-opacity="0.19225" />
<rect x="220" y="260" width="20" height="20" fill="#00cc00" fill-opacity="0.1945" />
<rect x="240" y="260" width="20" height="20" fill="#00cc00" fill-opacity="0.19675" />
<rect x="240" y="240" width="20" height="20" fill="#00cc00" fill-opacity="0.199" />
<rect x="260" y="240" width="20" height="20" fill="#00cc00" fill-opacity="0.20125" />
<rect x="280" y="240" width="20" height="20" fill="#00cc00" fill-opacity="0.20350000000000001" />
<rect x="260" y="240" width="20" height="20" fill="#00cc00" fill-opacity="0.20575" />
<rect x="280" y="240" width="20" height="20" fill="#00cc00" fill-opacity="0.20800000000000002" />
<rect x="300" y="240" width="20" height="20" fill="#00cc00" fill-opacity="0.21025" />
<rect x="300" y="220" width="20" height="20" fill="#00cc00" fill-opacity="0.21250000000000002" />
<rect x="300" y="240" width="20" height="20" fill="#00cc00" fill-opacity="0.21475" />
<rect x="280" y="240" width="20" height="20" fill="#00cc00" fill-opacity="0.21700000000000003" />
<rect x="300" y="240" width="20" height="20" fill="#00cc00" fill-opacity="0.21925" />
<rect x="300" y="260" width="20" height="20" fill="#00cc00" fill-opacity="0.22150000000000003" />
<rect x="320" y="260" width="20" height="20" fill="#00cc00" fill-opacity="0.22375" />
<rect x="340" y="260" width="20" height="20" fill="#00cc00" fill-opacity="0.22600000000000003" />
<rect x="360" y="260" width="20" height="20" fill="#00cc00" fill-opacity="0.22825" />
<rect x="360" y="280" width="20" height="20" fill="#00cc00" fill-opacity="0.2305" />
<rect x="360" y="300" width="20" height="20" fill="#00cc00" fill-opacity="0.23275" />
<rect x="360" y="280" width="20" height="20" fill="#00cc00" fill-opacity="0.23500000000000001" />
<rect x="340" y="280" width="20" height="20" fill="#00cc00" fill-opacity="0.23725000000000002" />
<rect x="340" y="300" width="20" height="20" fill="#00cc00" fill-opacity="0.23950000000000002" />
<rect x="320" y="300" width="20" height="20" fill="#00cc00" fill-opacity="0.24175000000000002" />
<rect x="300" y="300" width="20" height="20" fill="#00cc00" fill-opacity="0.24400000000000002" />
<rect x="320" y="300" width="20" height="20" fill="#00cc00" fill-opacity="0.24625000000000002" />
<rect x="300" y="300" width="20" height="20" fill="#00cc00" fill-opacity="0.24850000000000003" />
<rect x="320" y="300" width="20" height="20" fill="#00cc00" fill-opacity="0.25075000000000003" />
<rect x="340" y="300" width="20" height="20" fill="#00cc00" fill-opacity="0.253" />
<rect x="340" y="320" width="20" height="20" fill="#00cc00" fill-opacity="0.25525" />
<rect x="320" y="320" width="20" height="20" fill="#00cc00" fill-opacity="0.2575" />
<rect x="320" y="340" width="20" height="20" fill="#00cc00" fill-opacity="0.25975000000000004" />
<rect x="320" y="360" width="20" height="20" fill="#00cc00" fill-opacity="0.262" />
<rect x="320" y="380" width="20" height="20" fill="#00cc00" fill-opacity="0.26425" />
<rect x="300" y="380" width="20" height="20" fill="#00cc00" fill-opacity="0.2665" />
<rect x="300" y="400" width="20" height="20" fill="#00cc00" fill-opacity="0.26875000000000004" />
<rect x="280" y="400" width="20" height="20" fill="#00cc00" fill-opacity="0.271" />
<rect x="280" y="380" width="20" height="20" fill="#00cc00" fill-opacity="0.27325" />
<rect x="300" y="380" width="20" height="20" fill="#00cc00" fill-opacity="0.2755" />
<rect x="300" y="400" width="20" height="20" fill="#00cc00" fill-opacity="0.27775000000000005" />
<rect x="280" y="400" width="20" height="20" fill="#00cc00" fill-opacity="0.28" />
<rect x="260" y="400" width="20" height="20" fill="#00cc00" fill-opacity="0.28225" />
<rect x="260" y="420" width="20" height="20" fill="#00cc00" fill-opacity="0.2845" />
<rect x="240" y="420" width="20" height="20" fill="#00cc00" fill-opacity="0.28675" />
<rect x="240" y="440" width="20" height="20" fill="#00cc00" fill-opacity="0.28900000000000003" />
<rect x="240" y="420" width="20" height="20" fill="#00cc00" fill-opacity="0.29125" />
<rect x="260" y="420" width="20" height="20" fill="#00cc00" fill-opacity="0.2935" />
<rect x="260" y="400" width="20" height="20" fill="#00cc00" fill-opacity="0.29575" />
<rect x="260" y="420" width="20" height="20" fill="#00cc00" fill-opacity="0.29800000000000004" />
<rect x="240" y="420" width="20" height="20" fill="#00cc00" fill-opacity="0.30025" />
<rect x="240" y="440" width="20" height="20" fill="#00cc00" fill-opacity="0.3025" />
<rect x="240" y="420" width="20" height="20" fill="#00cc00" fill-opacity="0.30475" />
<rect x="240" y="400" width="20" height="20" fill="#00cc00" fill-opacity="0.30700000000000005" />
<rect x="260" y="400" width="20" height="20" fill="#00cc00" fill-opacity="0.30925" />
<rect x="280" y="400" width="20" height="20" fill="#00cc00" fill-opacity="0.3115" />
<rect x="280" y="420" width="20" height="20" fill="#00cc00" fill-opacity="0.31375" />
<rect x="300" y="420" width="20" height="20" fill="#00cc00" fill-opacity="0.316" />
<rect x="300" y="440" width="20" height="20" fill="#00cc00" fill-opacity="0.31825000000000003" />
<rect x="300" y="460" width="20" height="20" fill="#00cc00" fill-opacity="0.3205" />
<rect x="300" y="480" width="20" height="20" fill="#00cc00" fill-opacity="0.32275" />
<rect x="300" y="460" width="20" height="20" fill="#00cc00" fill-opacity="0.325" />
<rect x="300" y="440" width="20" height="20" fill="#00cc00" fill-opacity="0.32725000000000004" />
<rect x="300" y="460" width="20" height="20" fill="#00cc00" fill-opacity="0.3295" />
<rect x="320" y="460" width="20" height="20" fill="#00cc00" fill-opacity="0.33175" />
<rect x="300" y="460" width="20" height="20" fill="#00cc00" fill-opacity="0.334" />
<rect x="300" y="480" width="20" height="20" fill="#00cc00" fill-opacity="0.33625000000000005" />
<rect x="320" y="480" width="20" height="20" fill="#00cc00" fill-opacity="0.3385" />
<rect x="320" y="460" width="20" height="20" fill="#00cc00" fill-opacity="0.34075" />
<rect x="300" y="460" width="20" height="20" fill="#00cc00" fill-opacity="0.343" />
<rect x="320" y="460" width="20" height="20" fill="#00cc00" fill-opacity="0.34525000000000006" />
<rect x="300" y="460" width="20" height="20" fill="#00cc00" fill-opacity="0.34750000000000003" />
<rect x="320" y="460" width="20" height="20" fill="#00cc00" fill-opacity="0.34975" />
<rect x="300" y="460" width="20" height="20" fill="#00cc00" fill-opacity="0.3520000000000001" />
<rect x="320" y="460" width="20" height="20" fill="#00cc00" fill-opacity="0.35424999999999995" />
<rect x="320" y="480" width="20" height="20" fill="#00cc00" fill-opacity="0.35650000000000004" />
<rect x="320" y="500" width="20" height="20" fill="#00cc00" fill-opacity="0.35875" />
<rect x="300" y="500" width="20" height="20" fill="#00cc00" fill-opacity="0.361" />
<rect x="300" y="520" width="20" height="20" fill="#00cc00" fill-opacity="0.36324999999999996" />
<rect x="300" y="500" width="20" height="20" fill="#00cc00" fill-opacity="0.36550000000000005" />
<rect x="300" y="520" width="20" height="20" fill="#00cc00" fill-opacity="0.36775" />
<rect x="280" y="520" width="20" height="20" fill="#00cc00" fill-opacity="0.37" />
<rect x="280" y="500" width="20" height="20" fill="#00cc00" fill-opacity="0.37224999999999997" />
<rect x="280" y="480" width="20" height="20" fill="#00cc00" fill-opacity="0.37450000000000006" />
<rect x="260" y="480" width="20" height="20" fill="#00cc00" fill-opacity="0.37675000000000003" />
<rect x="260" y="460" width="20" height="20" fill="#00cc00" fill-opacity="0.379" />
<rect x="240" y="460" width="20" height="20" fill="#00cc00" fill-opacity="0.38125" />
<rect x="240" y="440" width="20" height="20" fill="#00cc00" fill-opacity="0.38350000000000006" />
<rect x="240" y="420" width="20" height="20" fill="#00cc00" fill-opacity="0.38575000000000004" />
<rect x="240" y="440" width="20" height="20" fill="#00cc00" fill-opacity="0.388" />
<rect x="260" y="440" width="20" height="20" fill="#00cc00" fill-opacity="0.39025" />
<rect x="260" y="460" width="20" height="20" fill="#00cc00" fill-opacity="0.39250000000000007" />
<rect x="280" y="460" width="20" height="20" fill="#00cc00" fill-opacity="0.39475000000000005" />
<rect x="280" y="480" width="20" height="20" fill="#00cc00" fill-opacity="0.397" />
<rect x="300" y="480" width="20" height="20" fill="#00cc00" fill-opacity="0.39925" />
<rect x="300" y="460" width="20" height="20" fill="#00cc00" fill-opacity="0.4015000000000001" />
<rect x="300" y="480" width="20" height="20" fill="#00cc00" fill-opacity="0.40375000000000005" />
<rect x="280" y="480" width="20" height="20" fill="#00cc00" fill-opacity="0.406" />
<rect x="260" y="480" width="20" height="20" fill="#00cc00" fill-opacity="0.40825" />
<rect x="240" y="480" width="20" height="20" fill="#00cc00" fill-opacity="0.4105" />
<rect x="260" y="480" width="20" height="20" fill="#00cc00" fill-opacity="0.41274999999999995" />
<rect x="260" y="460" width="20" height="20" fill="#00cc00" fill-opacity="0.41500000000000004" />
<rect x="260" y="480" width="20" height="20" fill="#00cc00" fill-opacity="0.41725" />
<rect x="260" y="500" width="20" height="20" fill="#00cc00" fill-opacity="0.4195" />
<rect x="260" y="480" width="20" height="20" fill="#00cc00" fill-opacity="0.42174999999999996" />
<rect x="260" y="500" width="20" height="20" fill="#00cc00" fill-opacity="0.42400000000000004" />
<rect x="260" y="480" width="20" height="20" fill="#00cc00" fill-opacity="0.42625" />
<rect x="280" y="480" width="20" height="20" fill="#00cc00" fill-opacity="0.4285" />
<rect x="300" y="480" width="20" height="20" fill="#00cc00" fill-opacity="0.43074999999999997" />
<rect x="280" y="480" width="20" height="20" fill="#00cc00" fill-opacity="0.43300000000000005" />
<rect x="260" y="480" width="20" height="20" fill="#00cc00" fill-opacity="0.43525" />
<rect x="260" y="500" width="20" height="20" fill="#00cc00" fill-opacity="0.4375" />
<rect x="260" y="480" width="20" height="20" fill="#00cc00" fill-opacity="0.43975" />
<rect x="280" y="480" width="20" height="20" fill="#00cc00" fill-opacity="0.44200000000000006" />
<rect x="280" y="500" width="20" height="20" fill="#00cc00" fill-opacity="0.44425000000000003" />
<rect x="260" y="500" width="20" height="20" fill="#00cc00" fill-opacity="0.4465" />
<rect x="240" y="500" width="20" height="20" fill="#00cc00" fill-opacity="0.44875" />
<rect x="240" y="520" width="20" height="20" fill="#00cc00" fill-opacity="0.45100000000000007" />
<rect x="240" y="540" width="20" height="20" fill="#00cc00" fill-opacity="0.45325000000000004" />
<rect x="260" y="540" width="20" height="20" fill="#00cc00" fill-opacity="0.4555" />
<rect x="280" y="540" width="20" height="20" fill="#00cc00" fill-opacity="0.45775" />
<rect x="260" y="540" width="20" height="20" fill="#00cc00" fill-opacity="0.4600000000000001" />
<rect x="260" y="520" width="20" height="20" fill="#00cc00" fill-opacity="0.46225000000000005" />
<rect x="240" y="520" width="20" height="20" fill="#00cc00" fill-opacity="0.4645" />
<rect x="220" y="520" width="20" height="20" fill="#00cc00" fill-opacity="0.46675" />
<rect x="220" y="540" width="20" height="20" fill="#00cc00" fill-opacity="0.469" />
<rect x="240" y="540" width="20" height="20" fill="#00cc00" fill-opacity="0.47124999999999995" />
<rect x="240" y="520" width="20" height="20" fill="#00cc00" fill-opacity="0.47350000000000003" />
<rect x="220" y="520" width="20" height="20" fill="#00cc00" fill-opacity="0.47575" />
<rect x="200" y="520" width="20" height="20" fill="#00cc00" fill-opacity="0.478" />
<rect x="220" y="520" width="20" height="20" fill="#00cc00" fill-opacity="0.48024999999999995" />
<rect x="200" y="520" width="20" height="20" fill="#00cc00" fill-opacity="0.48250000000000004" />
<rect x="180" y="520" width="20" height="20" fill="#00cc00" fill-opacity="0.48475" />
<rect x="180" y="540" width="20" height="20" fill="#00cc00" fill-opacity="0.487" />
<rect x="180" y="520" width="20" height="20" fill="#00cc00" fill-opacity="0.48924999999999996" />
<rect x="200" y="520" width="20" height="20" fill="#00cc00" fill-opacity="0.49150000000000005" />
<rect x="220" y="520" width="20" height="20" fill="#00cc00" fill-opacity="0.49375" />
<rect x="220" y="500" width="20" height="20" fill="#00cc00" fill-opacity="0.496" />
<rect x="220" y="520" width="20" height="20" fill="#00cc00" fill-opacity="0.49824999999999997" />
<rect x="200" y="520" width="20" height="20" fill="#00cc00" fill-opacity="0.5005000000000001" />
<rect x="200" y="500" width="20" height="20" fill="#00cc00" fill-opacity="0.50275" />
<rect x="180" y="500" width="20" height="20" fill="#00cc00" fill-opacity="0.505" />
<rect x="200" y="500" width="20" height="20" fill="#00cc00" fill-opacity="0.50725" />
<rect x="200" y="520" width="20" height="20" fill="#00cc00" fill-opacity="0.5095000000000001" />
<rect x="220" y="520" width="20" height="20" fill="#00cc00" fill-opacity="0.51175" />
<rect x="220" y="540" width="20" height="20" fill="#00cc00" fill-opacity="0.514" />
<rect x="240" y="540" width="20" height="20" fill="#00cc00" fill-opacity="0.51625" />
<rect x="220" y="540" width="20" height="20" fill="#00cc00" fill-opacity="0.5185000000000001" />
<rect x="240" y="540" width="20" height="20" fill="#00cc00" fill-opacity="0.52075" />
<rect x="220" y="540" width="20" height="20" fill="#00cc00" fill-opacity="0.523" />
<rect x="200" y="540" width="20" height="20" fill="#00cc00" fill-opacity="0.52525" />
<rect x="220" y="540" width="20" height="20" fill="#00cc00" fill-opacity="0.5275" />
<rect x="220" y="520" width="20" height="20" fill="#00cc00" fill-opacity="0.5297499999999999" />
<rect x="200" y="520" width="20" height="20" fill="#00cc00" fill-opacity="0.532" />
<rect x="220" y="520" width="20" height="20" fill="#00cc00" fill-opacity="0.53425" />
<rect x="220" y="540" width="20" height="20" fill="#00cc00" fill-opacity="0.5365" />
<rect x="200" y="540" width="20" height="20" fill="#00cc00" fill-opacity="0.53875" />
<rect x="200" y="520" width="20" height="20" fill="#00cc00" fill-opacity="0.541" />
<rect x="200" y="500" width="20" height="20" fill="#00cc00" fill-opacity="0.54325" />
<rect x="220" y="500" width="20" height="20" fill="#00cc00" fill-opacity="0.5455" />
<rect x="220" y="480" width="20" height="20" fill="#00cc00" fill-opacity="0.54775" />
<rect x="220" y="460" width="20" height="20" fill="#00cc00" fill-opacity="0.55" />
<rect x="220" y="440" width="20" height="20" fill="#00cc00" fill-opacity="0.55225" />
<rect x="220" y="420" width="20" height="20" fill="#00cc00" fill-opacity="0.5545" />
<rect x="220" y="400" width="20" height="20" fill="#00cc00" fill-opacity="0.55675" />
<rect x="200" y="400" width="20" height="20" fill="#00cc00" fill-opacity="0.559" />
<rect x="200" y="380" width="20" height="20" fill="#00cc00" fill-opacity="0.56125" />
<rect x="200" y="360" width="20" height="20" fill="#00cc00" fill-opacity="0.5635" />
<rect x="200" y="340" width="20" height="20" fill="#00cc00" fill-opacity="0.56575" />
<rect x="180" y="340" width="20" height="20" fill="#00cc00" fill-opacity="0.5680000000000001" />
<rect x="160" y="340" width="20" height="20" fill="#00cc00" fill-opacity="0.57025" />
<rect x="180" y="340" width="20" height="20" fill="#00cc00" fill-opacity="0.5725" />
<rect x="160" y="340" width="20" height="20" fill="#00cc00" fill-opacity="0.57475" />
<rect x="160" y="360" width="20" height="20" fill="#00cc00" fill-opacity="0.5770000000000001" />
<rect x="160" y="340" width="20" height="20" fill="#00cc00" fill-opacity="0.57925" />
<rect x="180" y="340" width="20" height="20" fill="#00cc00" fill-opacity="0.5815" />
<rect x="180" y="320" width="20" height="20" fill="#00cc00" fill-opacity="0.58375" />
<rect x="180" y="340" width="20" height="20" fill="#00cc00" fill-opacity="0.5860000000000001" />
<rect x="180" y="320" width="20" height="20" fill="#00cc00" fill-opacity="0.58825" />
<rect x="180" y="340" width="20" height="20" fill="#00cc00" fill-opacity="0.5905" />
<rect x="160" y="340" width="20" height="20" fill="#00cc00" fill-opacity="0.59275" />
<rect x="160" y="320" width="20" height="20" fill="#00cc00" fill-opacity="0.5950000000000001" />
<rect x="140" y="320" width="20" height="20" fill="#00cc00" fill-opacity="0.5972500000000001" />
<rect x="120" y="320" width="20" height="20" fill="#00cc00" fill-opacity="0.5995" />
<rect x="120" y="300" width="20" height="20" fill="#00cc00" fill-opacity="0.60175" />
<rect x="140" y="300" width="20" height="20" fill="#00cc00" fill-opacity="0.6040000000000001" />
<rect x="140" y="320" width="20" height="20" fill="#00cc00" fill-opacity="0.60625" />
<rect x="140" y="300" width="20" height="20" fill="#00cc00" fill-opacity="0.6084999999999999" />
<rect x="160" y="300" width="20" height="20" fill="#00cc00" fill-opacity="0.61075" />
<rect x="180" y="300" width="20" height="20" fill="#00cc00" fill-opacity="0.613" />
<rect x="200" y="300" width="20" height="20" fill="#00cc00" fill-opacity="0.61525" />
<rect x="200" y="280" width="20" height="20" fill="#00cc00" fill-opacity="0.6174999999999999" />
<rect x="220" y="280" width="20" height="20" fill="#00cc00" fill-opacity="0.61975" />
<rect x="200" y="280" width="20" height="20" fill="#00cc00" fill-opacity="0.622" />
<rect x="200" y="260" width="20" height="20" fill="#00cc00" fill-opacity="0.62425" />
<rect x="200" y="280" width="20" height="20" fill="#00cc00" fill-opacity="0.6265" />
<rect x="220" y="280" width="20" height="20" fill="#00cc00" fill-opacity="0.62875" />
<rect x="200" y="280" width="20" height="20" fill="#00cc00" fill-opacity="0.631" />
<rect x="220" y="280" width="20" height="20" fill="#00cc00" fill-opacity="0.63325" />
<rect x="240" y="280" width="20" height="20" fill="#00cc00" fill-opacity="0.6355" />
<rect x="220" y="280" width="20" height="20" fill="#00cc00" fill-opacity="0.63775" />
<rect x="220" y="300" width="20" height="20" fill="#00cc00" fill-opacity="0.64" />
<rect x="220" y="280" width="20" height="20" fill="#00cc00" fill-opacity="0.64225" />
<rect x="220" y="300" width="20" height="20" fill="#00cc00" fill-opacity="0.6445" />
<rect x="200" y="300" width="20" height="20" fill="#00cc00" fill-opacity="0.64675" />
<rect x="220" y="300" width="20" height="20" fill="#00cc00" fill-opacity="0.649" />
<rect x="220" y="320" width="20" height="20" fill="#00cc00" fill-opacity="0.65125" />
<rect x="240" y="320" width="20" height="20" fill="#00cc00" fill-opacity="0.6535" />
<rect x="260" y="320" width="20" height="20" fill="#00cc00" fill-opacity="0.65575" />
<rect x="240" y="320" width="20" height="20" fill="#00cc00" fill-opacity="0.658" />
<rect x="240" y="300" width="20" height="20" fill="#00cc00" fill-opacity="0.66025" />
<rect x="240" y="280" width="20" height="20" fill="#00cc00" fill-opacity="0.6625" />
<rect x="260" y="280" width="20" height="20" fill="#00cc00" fill-opacity="0.66475" />
<rect x="240" y="280" width="20" height="20" fill="#00cc00" fill-opacity="0.667" />
<rect x="240" y="300" width="20" height="20" fill="#00cc00" fill-opacity="0.6692499999999999" />
<rect x="240" y="280" width="20" height="20" fill="#00cc00" fill-opacity="0.6715" />
<rect x="260" y="280" width="20" height="20" fill="#00cc00" fill-opacity="0.67375" />
<rect x="260" y="260" width="20" height="20" fill="#00cc00" fill-opacity="0.676" />
<rect x="280" y="260" width="20" height="20" fill="#00cc00" fill-opacity="0.6782499999999999" />
<rect x="260" y="260" width="20" height="20" fill="#00cc00" fill-opacity="0.6805" />
<rect x="240" y="260" width="20" height="20" fill="#00cc00" fill-opacity="0.68275" />
<rect x="260" y="260" width="20" height="20" fill="#00cc00" fill-opacity="0.685" />
<rect x="260" y="280" width="20" height="20" fill="#00cc00" fill-opacity="0.6872499999999999" />
<rect x="260" y="300" width="20" height="20" fill="#00cc00" fill-opacity="0.6895" />
<rect x="260" y="280" width="20" height="20" fill="#00cc00" fill-opacity="0.69175" />
<rect x="280" y="280" width="20" height="20" fill="#00cc00" fill-opacity="0.6940000000000001" />
<rect x="280" y="300" width="20" height="20" fill="#00cc00" fill-opacity="0.6962499999999999" />
<rect x="260" y="300" width="20" height="20" fill="#00cc00" fill-opacity="0.6985" />
<rect x="260" y="320" width="20" height="20" fill="#00cc00" fill-opacity="0.70075" />
<rect x="260" y="340" width="20" height="20" fill="#00cc00" fill-opacity="0.7030000000000001" />
<rect x="260" y="360" width="20" height="20" fill="#00cc00" fill-opacity="0.7052499999999999" />
<rect x="260" y="340" width="20" height="20" fill="#00cc00" fill-opacity="0.7075" />
<rect x="240" y="340" width="20" height="20" fill="#00cc00" fill-opacity="0.70975" />
<rect x="220" y="340" width="20" height="20" fill="#00cc00" fill-opacity="0.7120000000000001" />
<rect x="200" y="340" width="20" height="20" fill="#00cc00" fill-opacity="0.7142499999999999" />
<rect x="200" y="320" width="20" height="20" fill="#00cc00" fill-opacity="0.7165" />
<rect x="200" y="300" width="20" height="20" fill="#00cc00" fill-opacity="0.71875" />
<rect x="200" y="280" width="20" height="20" fill="#00cc00" fill-opacity="0.721" />
<rect x="200" y="260" width="20" height="20" fill="#00cc00" fill-opacity="0.72325" />
<rect x="200" y="280" width="20" height="20" fill="#00cc00" fill-opacity="0.7254999999999999" />
<rect x="180" y="280" width="20" height="20" fill="#00cc00" fill-opacity="0.72775" />
<rect x="180" y="300" width="20" height="20" fill="#00cc00" fill-opacity="0.73" />
<rect x="180" y="280" width="20" height="20" fill="#00cc00" fill-opacity="0.73225" />
<rect x="180" y="260" width="20" height="20" fill="#00cc00" fill-opacity="0.7344999999999999" />
<rect x="180" y="280" width="20" height="20" fill="#00cc00" fill-opacity="0.73675" />
<rect x="180" y="300" width="20" height="20" fill="#00cc00" fill-opacity="0.739" />
<rect x="180" y="280" width="20" height="20" fill="#00cc00" fill-opacity="0.74125" />
<rect x="200" y="280" width="20" height="20" fill="#00cc00" fill-opacity="0.7434999999999999" />
<rect x="200" y="300" width="20" height="20" fill="#00cc00" fill-opacity="0.74575" />
<rect x="180" y="300" width="20" height="20" fill="#00cc00" fill-opacity="0.748" />
<rect x="180" y="320" width="20" height="20" fill="#00cc00" fill-opacity="0.75025" />
<rect x="180" y="300" width="20" height="20" fill="#00cc00" fill-opacity="0.7525" />
<rect x="180" y="320" width="20" height="20" fill="#00cc00" fill-opacity="0.75475" />
<rect x="160" y="320" width="20" height="20" fill="#00cc00" fill-opacity="0.757" />
<rect x="160" y="340" width="20" height="20" fill="#00cc00" fill-opacity="0.75925" />
<rect x="180" y="340" width="20" height="20" fill="#00cc00" fill-opacity="0.7615" />
<rect x="180" y="320" width="20" height="20" fill="#00cc00" fill-opacity="0.76375" />
<rect x="180" y="340" width="20" height="20" fill="#00cc00" fill-opacity="0.766" />
<rect x="180" y="320" width="20" height="20" fill="#00cc00" fill-opacity="0.76825" />
<rect x="180" y="340" width="20" height="20" fill="#00cc00" fill-opacity="0.7705" />
<rect x="160" y="340" width="20" height="20" fill="#00cc00" fill-opacity="0.77275" />
<rect x="160" y="360" width="20" height="20" fill="#00cc00" fill-opacity="0.775" />
<rect x="160" y="340" width="20" height="20" fill="#00cc00" fill-opacity="0.77725" />
<rect x="180" y="340" width="20" height="20" fill="#00cc00" fill-opacity="0.7795" />
<rect x="200" y="340" width="20" height="20" fill="#00cc00" fill-opacity="0.78175" />
<rect x="180" y="340" width="20" height="20" fill="#00cc00" fill-opacity="0.784" />
<rect x="180" y="320" width="20" height="20" fill="#00cc00" fill-opacity="0.78625" />
<rect x="180" y="340" width="20" height="20" fill="#00cc00" fill-opacity="0.7885" />
<rect x="180" y="360" width="20" height="20" fill="#00cc00" fill-opacity="0.79075" />
<rect x="180" y="340" width="20" height="20" fill="#00cc00" fill-opacity="0.793" />
<rect x="200" y="340" width="20" height="20" fill="#00cc00" fill-opacity="0.79525" />
<rect x="200" y="360" width="20" height="20" fill="#00cc00" fill-opacity="0.7975" />
<rect x="220" y="360" width="20" height="20" fill="#00cc00" fill-opacity="0.79975" />
<rect x="240" y="360" width="20" height="20" fill="#00cc00" fill-opacity="0.802" />
<rect x="240" y="380" width="20" height="20" fill="#00cc00" fill-opacity="0.80425" />
<rect x="240" y="400" width="20" height="20" fill="#00cc00" fill-opacity="0.8065" />
<rect x="240" y="420" width="20" height="20" fill="#00cc00" fill-opacity="0.80875" />
<rect x="240" y="440" width="20" height="20" fill="#00cc00" fill-opacity="0.811" />
<rect x="240" y="420" width="20" height="20" fill="#00cc00" fill-opacity="0.81325" />
<rect x="240" y="440" width="20" height="20" fill="#00cc00" fill-opacity="0.8155" />
<rect x="240" y="460" width="20" height="20" fill="#00cc00" fill-opacity="0.81775" />
<rect x="220" y="460" width="20" height="20" fill="#00cc00" fill-opacity="0.8200000000000001" />
<rect x="240" y="460" width="20" height="20" fill="#00cc00" fill-opacity="0.82225" />
<rect x="220" y="460" width="20" height="20" fill="#00cc00" fill-opacity="0.8245" />
<rect x="240" y="460" width="20" height="20" fill="#00cc00" fill-opacity="0.82675" />
<rect x="240" y="480" width="20" height="20" fill="#00cc00" fill-opacity="0.8290000000000001" />
<rect x="260" y="480" width="20" height="20" fill="#00cc00" fill-opacity="0.83125" />
<rect x="260" y="460" width="20" height="20" fill="#00cc00" fill-opacity="0.8334999999999999" />
<rect x="260" y="480" width="20" height="20" fill="#00cc00" fill-opacity="0.83575" />
<rect x="240" y="480" width="20" height="20" fill="#00cc00" fill-opacity="0.838" />
<rect x="260" y="480" width="20" height="20" fill="#00cc00" fill-opacity="0.84025" />
<rect x="260" y="500" width="20" height="20" fill="#00cc00" fill-opacity="0.8424999999999999" />
<rect x="280" y="500" width="20" height="20" fill="#00cc00" fill-opacity="0.84475" />
<rect x="300" y="500" width="20" height="20" fill="#00cc00" fill-opacity="0.847" />
<rect x="300" y="520" width="20" height="20" fill="#00cc00" fill-opacity="0.8492500000000001" />
<rect x="320" y="520" width="20" height="20" fill="#00cc00" fill-opacity="0.8514999999999999" />
<rect x="300" y="520" width="20" height="20" fill="#00cc00" fill-opacity="0.85375" />
<rect x="280" y="520" width="20" height="20" fill="#00cc00" fill-opacity="0.856" />
<rect x="260" y="520" width="20" height="20" fill="#00cc00" fill-opacity="0.8582500000000001" />
<rect x="260" y="540" width="20" height="20" fill="#00cc00" fill-opacity="0.8604999999999999" />
<rect x="240" y="540" width="20" height="20" fill="#00cc00" fill-opacity="0.86275" />
<rect x="220" y="540" width="20" height="20" fill="#00cc00" fill-opacity="0.865" />
<rect x="220" y="520" width="20" height="20" fill="#00cc00" fill-opacity="0.8672500000000001" />
<rect x="220" y="540" width="20" height="20" fill="#00cc00" fill-opacity="0.8694999999999999" />
<rect x="240" y="540" width="20" height="20" fill="#00cc00" fill-opacity="0.87175" />
<rect x="260" y="540" width="20" height="20" fill="#00cc00" fill-opacity="0.874" />
<rect x="280" y="540" width="20" height="20" fill="#00cc00" fill-opacity="0.8762500000000001" />
<rect x="280" y="560" width="20" height="20" fill="#00cc00" fill-opacity="0.8785" />
<rect x="260" y="560" width="20" height="20" fill="#00cc00" fill-opacity="0.88075" />
<rect x="280" y="560" width="20" height="20" fill="#00cc00" fill-opacity="0.883" />
<rect x="280" y="540" width="20" height="20" fill="#00cc00" fill-opacity="0.8852500000000001" />
<rect x="280" y="560" width="20" height="20" fill="#00cc00" fill-opacity="0.8875" />
<rect x="280" y="540" width="20" height="20" fill="#00cc00" fill-opacity="0.8897499999999999" />
<rect x="300" y="540" width="20" height="20" fill="#00cc00" fill-opacity="0.892" />
<rect x="280" y="540" width="20" height="20" fill="#00cc00" fill-opacity="0.89425" />
<rect x="280" y="520" width="20" height="20" fill="#00cc00" fill-opacity="0.8965" />
<rect x="280" y="540" width="20" height="20" fill="#00cc00" fill-opacity="0.8987499999999999" />
<rect x="280" y="520" width="20" height="20" fill="#00cc00" fill-opacity="0.901" />
<rect x="280" y="500" width="20" height="20" fill="#00cc00" fill-opacity="0.90325" />
<rect x="260" y="500" width="20" height="20" fill="#00cc00" fill-opacity="0.9055" />
<rect x="240" y="500" width="20" height="20" fill="#00cc00" fill-opacity="0.90775" />
<rect x="240" y="520" width="20" height="20" fill="#00cc00" fill-opacity="0.91" />
<rect x="260" y="520" width="20" height="20" fill="#00cc00" fill-opacity="0.91225" />
<rect x="240" y="520" width="20" height="20" fill="#00cc00" fill-opacity="0.9145" />
<rect x="240" y="500" width="20" height="20" fill="#00cc00" fill-opacity="0.91675" />
<rect x="240" y="520" width="20" height="20" fill="#00cc00" fill-opacity="0.919" />
<rect x="240" y="500" width="20" height="20" fill="#00cc00" fill-opacity="0.92125" />
<rect x="260" y="500" width="20" height="20" fill="#00cc00" fill-opacity="0.9235" />
<rect x="280" y="500" width="20" height="20" fill="#00cc00" fill-opacity="0.92575" />
<rect x="300" y="500" width="20" height="20" fill="#00cc00" fill-opacity="0.928" />
<rect x="300" y="520" width="20" height="20" fill="#00cc00" fill-opacity="0.93025" />
<rect x="320" y="520" width="20" height="20" fill="#00cc00" fill-opacity="0.9325" />
<rect x="340" y="520" width="20" height="20" fill="#00cc00" fill-opacity="0.93475" />
<rect x="340" y="540" width="20" height="20" fill="#00cc00" fill-opacity="0.937" />
<rect x="340" y="560" width="20" height="20" fill="#00cc00" fill-opacity="0.93925" />
<rect x="320" y="560" width="20" height="20" fill="#00cc00" fill-opacity="0.9415" />
<rect x="300" y="560" width="20" height="20" fill="#00cc00" fill-opacity="0.94375" />
<rect x="320" y="560" width="20" height="20" fill="#00cc00" fill-opacity="0.946" />
<rect x="340" y="560" width="20" height="20" fill="#00cc00" fill-opacity="0.94825" />
<rect x="360" y="560" width="20" height="20" fill="#00cc00" fill-opacity="0.9504999999999999" />
<rect x="360" y="540" width="20" height="20" fill="#00cc00" fill-opacity="0.95275" />
<rect x="380" y="540" width="20" height="20" fill="#00cc00" fill-opacity="0.955" />
<rect x="380" y="560" width="20" height="20" fill="#00cc00" fill-opacity="0.95725" />
<rect x="400" y="560" width="20" height="20" fill="#00cc00" fill-opacity="0.9594999999999999" />
<rect x="420" y="560" width="20" height="20" fill="#00cc00" fill-opacity="0.96175" />
<rect x="420" y="580" width="20" height="20" fill="#00cc00" fill-opacity="0.964" />
<rect x="420" y="560" width="20" height="20" fill="#00cc00" fill-opacity="0.96625" />
<rect x="400" y="560" width="20" height="20" fill="#00cc00" fill-opacity="0.9684999999999999" />
<rect x="420" y="560" width="20" height="20" fill="#00cc00" fill-opacity="0.97075" />
<rect x="440" y="560" width="20" height="20" fill="#00cc00" fill-opacity="0.973" />
<rect x="460" y="560" width="20" height="20" fill="#00cc00" fill-opacity="0.9752500000000001" />
<rect x="460" y="580" width="20" height="20" fill="#00cc00" fill-opacity="0.9774999999999999" />
<rect x="460" y="560" width="20" height="20" fill="#00cc00" fill-opacity="0.97975" />
<rect x="440" y="560" width="20" height="20" fill="#00cc00" fill-opacity="0.982" />
<rect x="440" y="540" width="20" height="20" fill="#00cc00" fill-opacity="0.9842500000000001" />
<rect x="440" y="560" width="20" height="20" fill="#00cc00" fill-opacity="0.9864999999999999" />
<rect x="460" y="560" width="20" height="20" fill="#00cc00" fill-opacity="0.98875" />
<rect x="460" y="580" width="20" height="20" fill="#00cc00" fill-opacity="0.991" />
<rect x="460" y="560" width="20" height="20" fill="#00cc00" fill-opacity="0.9932500000000001" />
<rect x="480" y="560" width="20" height="20" fill="#00cc00" fill-opacity="0.9954999999999999" />
<rect x="480" y="580" width="20" height="20" fill="#00cc00" fill-opacity="0.99775" />
</svg>