<?xml version="1.0" encoding="UTF-8" ?>
<svg width="600" height="600" viewBox="0 0 600 600" xmlns="http://www.w3.org/2000/svg">
  <rect width="100%" height="100%" fill="#ffffff" />
  
  <!-- Random walk trail squares -->
  <rect x="300" y="300" width="20" height="20" fill="#00cc00" fill-opacity="1" />
  <rect x="280" y="300" width="20" height="20" fill="#00cc00" fill-opacity="0.97" />
  <rect x="260" y="300" width="20" height="20" fill="#00cc00" fill-opacity="0.94" />
  <rect x="260" y="280" width="20" height="20" fill="#00cc00" fill-opacity="0.91" />
  <rect x="240" y="280" width="20" height="20" fill="#00cc00" fill-opacity="0.88" />
  <rect x="220" y="280" width="20" height="20" fill="#00cc00" fill-opacity="0.85" />
  <rect x="220" y="260" width="20" height="20" fill="#00cc00" fill-opacity="0.82" />
  <rect x="220" y="240" width="20" height="20" fill="#00cc00" fill-opacity="0.79" />
  <rect x="240" y="240" width="20" height="20" fill="#00cc00" fill-opacity="0.76" />
  <rect x="260" y="240" width="20" height="20" fill="#00cc00" fill-opacity="0.73" />
  <rect x="280" y="240" width="20" height="20" fill="#00cc00" fill-opacity="0.70" />
  <rect x="300" y="240" width="20" height="20" fill="#00cc00" fill-opacity="0.67" />
  <rect x="320" y="240" width="20" height="20" fill="#00cc00" fill-opacity="0.64" />
  <rect x="320" y="220" width="20" height="20" fill="#00cc00" fill-opacity="0.61" />
  <rect x="320" y="200" width="20" height="20" fill="#00cc00" fill-opacity="0.58" />
  <rect x="340" y="200" width="20" height="20" fill="#00cc00" fill-opacity="0.55" />
  <rect x="360" y="200" width="20" height="20" fill="#00cc00" fill-opacity="0.52" />
  <rect x="360" y="220" width="20" height="20" fill="#00cc00" fill-opacity="0.49" />
  <rect x="360" y="240" width="20" height="20" fill="#00cc00" fill-opacity="0.46" />
  <rect x="380" y="240" width="20" height="20" fill="#00cc00" fill-opacity="0.43" />
  <rect x="400" y="240" width="20" height="20" fill="#00cc00" fill-opacity="0.40" />
  <rect x="420" y="240" width="20" height="20" fill="#00cc00" fill-opacity="0.37" />
  <rect x="420" y="260" width="20" height="20" fill="#00cc00" fill-opacity="0.34" />
  <rect x="420" y="280" width="20" height="20" fill="#00cc00" fill-opacity="0.31" />
  <rect x="400" y="280" width="20" height="20" fill="#00cc00" fill-opacity="0.28" />
  <rect x="380" y="280" width="20" height="20" fill="#00cc00" fill-opacity="0.25" />
  <rect x="360" y="280" width="20" height="20" fill="#00cc00" fill-opacity="0.22" />
  <rect x="340" y="280" width="20" height="20" fill="#00cc00" fill-opacity="0.19" />
  <rect x="320" y="280" width="20" height="20" fill="#00cc00" fill-opacity="0.16" />
  <rect x="300" y="280" width="20" height="20" fill="#00cc00" fill-opacity="0.13" />
  <rect x="280" y="280" width="20" height="20" fill="#00cc00" fill-opacity="0.10" />
</svg>
